<?xml version="1.0" encoding="UTF-8" standalone="no"?>
<!DOCTYPE svg PUBLIC "-//W3C//DTD SVG 1.1//EN" "http://www.w3.org/Graphics/SVG/1.1/DTD/svg11.dtd">
<svg width="100%" height="100%" viewBox="0 0 410 60" version="1.1" xmlns="http://www.w3.org/2000/svg" xmlns:xlink="http://www.w3.org/1999/xlink" xml:space="preserve" style="fill-rule:evenodd;clip-rule:evenodd;stroke-linejoin:round;stroke-miterlimit:1.41421;">
    <g transform="matrix(1.29275,0,0,1.29275,-17.554,-31.0545)">
        <path d="M166.073,48.022L166.073,56.986L164.647,56.986C164.647,56.986 161.968,53.806 161.874,53.898C159.776,55.968 156.703,57.275 153.281,57.275C146.964,57.275 141.836,52.822 141.836,47.338C141.836,41.854 146.964,37.401 153.281,37.401C157.432,37.401 161.07,39.324 163.077,42.2L160.579,43.932C159.478,42.002 157.186,40.673 154.539,40.673C150.823,40.673 147.805,43.293 147.805,46.52C147.805,49.747 150.823,52.367 154.539,52.367C157.658,52.367 161.756,50.522 162.52,48.022L166.073,48.022Z" style="fill:rgb(51,102,153);"/>
        <path d="M316.279,37.59C322.119,37.59 326.861,42.042 326.861,47.526C326.861,53.009 322.119,57.461 316.279,57.461C310.439,57.461 305.697,53.009 305.697,47.526C305.697,42.042 310.439,37.59 316.279,37.59ZM316.279,42.639C319.151,42.639 321.483,44.829 321.483,47.526C321.483,50.222 319.151,52.412 316.279,52.412C313.407,52.412 311.075,50.222 311.075,47.526C311.075,44.829 313.407,42.639 316.279,42.639Z" style="fill:rgb(51,102,153);"/>
        <path d="M218.775,37.776L227.957,37.776L227.957,39.12L226.988,39.12L226.988,55.794L227.957,55.794L227.957,57.138L218.855,57.138L218.855,55.794L219.825,55.794L219.825,53.781L208.942,47.541L208.942,55.794L209.912,55.794L209.912,57.138L200.81,57.138L200.81,55.794L201.779,55.794L201.779,39.12L200.81,39.12L200.81,37.776L209.912,37.776L209.912,39.12L208.942,39.12L208.942,40.379L219.825,46.618L219.825,39.12L218.775,39.12L218.775,37.776Z" style="fill:rgb(51,102,153);"/>
        <path d="M274.896,37.776L283.999,37.776L283.999,39.12L283.029,39.12L283.029,40.379L293.911,46.618L293.911,39.12L292.941,39.12L292.941,37.776L302.044,37.776L302.044,39.12L301.074,39.12L301.074,55.794L302.044,55.794L302.044,57.138L292.941,57.138L292.941,55.794L293.911,55.794L293.911,53.781L283.029,47.541L283.029,55.794L283.999,55.794L283.999,57.138L274.896,57.138L274.896,55.794L275.866,55.794L275.866,39.12L274.896,39.12L274.896,37.776Z" style="fill:rgb(51,102,153);"/>
        <g transform="matrix(19.8351,0,0,1.00149,-642.329,21.5756)">
            <rect x="38.112" y="37.776" width="10.75" height="1.344" style="fill:rgb(51,102,153);"/>
        </g>
        <path d="M114.947,55.672L114.947,39.078L113.675,39.078L113.675,37.817L121.74,37.817L121.74,37.811C121.74,37.811 130.439,37.811 132.128,37.811C132.209,37.811 132.289,37.813 132.369,37.817L132.594,37.817L132.594,37.833C135.184,38.068 137.216,40.249 137.216,42.9C137.216,45.394 135.417,47.472 133.046,47.905L133.152,47.905L138.92,55.672L140.333,55.672L140.333,57.017L128.125,57.017L128.125,55.672L128.716,55.672L123.01,47.988L121.975,47.988L121.975,55.672L123.497,55.672L123.497,57.017L113.675,57.017L113.675,55.672L114.947,55.672ZM130.11,41.995L121.975,41.995L121.975,45.924L130.11,45.924C131.194,45.924 132.075,45.044 132.075,43.96C132.075,42.875 131.194,41.995 130.11,41.995Z" style="fill:rgb(51,102,153);"/>
        <path d="M38.112,39.12L38.112,37.776L48.863,37.776L48.863,39.12L47.152,39.12L47.152,51.001L63.041,51.001L63.041,49.898L64.385,49.898L64.385,58.034L63.041,58.034L63.041,57.209L40.859,57.209L40.859,39.12L38.112,39.12Z" style="fill:rgb(51,102,153);"/>
        <path d="M170.779,55.725L171.992,55.725L171.992,39.12L170.779,39.12L170.779,37.776L192.879,37.776C194.533,40.428 195.182,42.793 195.028,44.929L193.234,44.929L191.973,41.94L179.157,41.94L179.157,45.905L190.608,45.905L191.722,49.128L179.157,49.128L179.157,52.159L193.858,52.159L194.166,50.972L195.79,50.972C196.011,53.497 195.576,54.867 193.64,57.069L170.779,57.069L170.779,55.725Z" style="fill:rgb(51,102,153);"/>
        <path d="M28.197,27.944L45.896,27.944L52.016,36.415L49.759,36.415L47.94,34.644L25.882,34.644L25.882,43.056C27.54,42.827 28.921,42.186 30.045,41.162C30.081,45.032 28.979,48.144 25.882,49.117L25.882,61.038L38.026,61.038L38.902,59.251L47.875,59.251L44.313,66.513L35.34,66.513L28.197,66.513L17.447,66.513L17.447,65.169L18.952,65.169L18.952,29.288L17.447,29.288L17.447,27.944L28.197,27.944Z" style="fill:rgb(51,102,153);"/>
        <g transform="matrix(-0.811302,-9.93558e-17,2.38467e-17,-0.194723,71.082,72.1817)">
            <path d="M30.413,29.111L3.52,29.111L1.363,47.435L28.256,47.435L30.413,29.111Z" style="fill:rgb(51,102,153);"/>
        </g>
        <g transform="matrix(-0.811302,-9.93558e-17,2.38467e-17,-0.194723,73.6525,68.6553)">
            <path d="M30.362,40.205L3.583,40.205L2.731,47.435L29.511,47.435L30.362,40.205Z" style="fill:rgb(51,102,153);"/>
        </g>
        <path d="M96.363,66.513L96.363,65.169C96.363,65.169 97.262,65.169 98.34,65.169C99.213,65.169 100.037,64.767 100.575,64.078C101.112,63.39 101.302,62.492 101.091,61.645L98.211,50.136L86.975,50.136L83.04,61.398C82.737,62.265 82.873,63.226 83.405,63.975C83.937,64.724 84.799,65.169 85.717,65.169C87.079,65.169 88.264,65.169 88.264,65.169L88.264,66.513L71.737,66.513L71.737,65.169C71.737,65.169 72.354,65.169 72.926,65.169C73.502,65.169 74.014,64.805 74.204,64.262C75.959,59.237 84.473,34.87 86.14,30.099C86.205,29.913 86.176,29.706 86.061,29.545C85.947,29.384 85.762,29.288 85.564,29.288C84.727,29.288 83.579,29.288 83.579,29.288L83.579,27.944L105.905,27.944L105.905,29.288C105.905,29.288 104.867,29.288 104.109,29.288C103.921,29.288 103.743,29.374 103.628,29.523C103.512,29.671 103.471,29.864 103.517,30.046C104.491,33.94 108.962,51.812 110.92,59.637C111.462,61.805 113.409,63.325 115.643,63.325C144.412,63.325 326.766,63.325 326.766,63.325L325.016,66.513L96.363,66.513ZM93.896,32.885C93.847,32.688 93.674,32.547 93.471,32.538C93.268,32.529 93.083,32.654 93.016,32.845C91.985,35.798 89.665,42.438 88.801,44.91C88.725,45.128 88.759,45.37 88.893,45.559C89.027,45.748 89.244,45.86 89.476,45.86C91.176,45.86 94.589,45.86 96.226,45.86C96.446,45.86 96.654,45.759 96.789,45.585C96.925,45.412 96.973,45.186 96.919,44.972C96.317,42.562 94.646,35.883 93.896,32.885Z" style="fill:rgb(51,102,153);"/>
        <path d="M258.86,37.776L267.963,37.776L267.963,39.12L266.993,39.12L266.993,55.794L267.963,55.794L267.963,57.138L258.86,57.138L258.86,55.794L259.83,55.794L259.83,39.12L258.86,39.12L258.86,37.776Z" style="fill:rgb(51,102,153);"/>
        <path d="M238.587,41.961L237.346,41.961L233.156,45C233.156,45 231.299,45.737 230.222,45C229.144,44.263 229.887,42.765 229.887,42.765L234.034,37.776L250.303,37.776L254.45,42.765C254.45,42.765 255.193,44.263 254.115,45C253.038,45.737 251.181,45 251.181,45L246.991,41.961L245.75,41.961L245.75,55.794L246.738,55.794L246.738,57.138L237.636,57.138L237.636,55.794L238.587,55.794L238.587,41.961Z" style="fill:rgb(51,102,153);"/>
    </g>
</svg>
