<svg width="32" height="32" viewBox="0 0 32 32" fill="none" xmlns="http://www.w3.org/2000/svg">
<g clip-path="url(#clip0)">
<path d="M25.5999 11.2008C25.2098 11.2008 24.8208 11.2398 24.4385 11.3172C24.1499 9.8781 23.2182 8.65076 21.9096 7.98644C20.6012 7.32238 19.0604 7.29425 17.7286 7.91066C16.5234 4.59088 12.8549 2.87682 9.53539 4.08228C6.21561 5.28749 4.50155 8.95571 5.70675 12.2755C2.79869 12.3674 0.501298 14.7742 0.545048 17.6835C0.588798 20.5927 2.95728 22.9296 5.86665 22.9341H25.5999C28.84 22.9341 31.4666 20.3075 31.4666 17.0674C31.4666 13.8273 28.84 11.2008 25.5999 11.2008Z" fill="#60A2D7"/>
<path d="M25.5999 16.5342C25.2098 16.5342 24.8208 16.5733 24.4385 16.6507C24.1499 15.2116 23.2182 13.9843 21.9096 13.3199C20.6012 12.6559 19.0604 12.6278 17.7286 13.2442C16.5234 9.92437 12.8549 8.21031 9.53539 9.41578C6.21561 10.621 4.50155 14.2892 5.70675 17.609C2.79869 17.7009 0.501298 20.1077 0.545048 23.017C0.588798 25.9262 2.95728 28.2631 5.86665 28.2676H25.5999C28.84 28.2676 31.4666 25.641 31.4666 22.4009C31.4666 19.1608 28.84 16.5342 25.5999 16.5342Z" fill="#A3D4F7"/>
<path d="M25.5999 10.6675C25.3444 10.6678 25.0892 10.6832 24.8358 10.7134C24.1476 8.47119 22.0788 6.93916 19.7332 6.93422C19.1497 6.93369 18.57 7.03057 18.0181 7.22067C16.6523 4.2673 13.4153 2.66209 10.2374 3.36261C7.05984 4.06313 4.79761 6.88031 4.79995 10.1342C4.80048 10.6964 4.87027 11.2563 5.00803 11.8014C3.13954 12.0678 1.51559 13.222 0.649706 14.899C-0.215917 16.5759 -0.216698 18.5683 0.648143 20.2456C-0.285708 22.0654 -0.205761 24.2399 0.85934 25.986C1.9247 27.7321 3.82131 28.7985 5.86662 28.8008H25.5999C27.7827 28.8055 29.8166 27.6951 30.9931 25.8566C32.1694 24.018 32.3254 21.706 31.4064 19.7264C31.7955 18.8938 31.9981 17.9865 31.9999 17.0675C31.9962 13.5345 29.133 10.6714 25.5999 10.6675ZM11.7333 4.26756C14.1825 4.27745 16.37 5.80193 17.2267 8.09645C17.2783 8.23577 17.3859 8.34723 17.5234 8.404C17.6606 8.46051 17.8155 8.45739 17.9504 8.39515C18.5088 8.13525 19.1174 8.00088 19.7332 8.00088C21.7627 8.00426 23.5098 9.43395 23.9153 11.4222C23.9733 11.711 24.2546 11.898 24.5434 11.8399C26.1114 11.523 27.739 11.9266 28.9772 12.9397C30.2153 13.9527 30.9332 15.4678 30.9332 17.0675C30.9345 17.574 30.8626 18.0782 30.7199 18.5641C30.697 18.5331 30.6699 18.5066 30.6465 18.4766C30.5546 18.3592 30.4593 18.2462 30.36 18.1357C30.2981 18.0665 30.2374 17.9962 30.1728 17.93C30.0843 17.8394 29.9902 17.755 29.8965 17.6696C29.7366 17.524 29.5692 17.3868 29.3952 17.2584C29.3205 17.2053 29.2486 17.1438 29.1712 17.0915C29.0645 17.0217 28.958 16.9605 28.8512 16.8964C28.7637 16.843 28.6778 16.7897 28.5877 16.7443C28.4811 16.691 28.3744 16.6378 28.2676 16.5902C28.1611 16.5428 28.0624 16.4975 27.9572 16.4558C27.8522 16.4141 27.7525 16.3774 27.6481 16.3423C27.5275 16.3016 27.4054 16.266 27.2817 16.2324C27.1861 16.2063 27.0913 16.179 26.9942 16.1581C26.8475 16.1251 26.6986 16.1011 26.5483 16.0787C26.4689 16.067 26.3882 16.0511 26.3098 16.0425C26.0741 16.0154 25.8371 16.0014 25.5999 16.0009C25.3444 16.0011 25.0892 16.0165 24.8358 16.0467C24.1476 13.8045 22.0788 12.2725 19.7332 12.2675C19.1497 12.267 18.57 12.3639 18.0181 12.554C16.7734 9.82874 13.9075 8.22327 10.9333 8.58447C10.8502 8.59411 10.7697 8.60947 10.6874 8.62171C10.5072 8.64957 10.3291 8.68213 10.1541 8.72301C10.0635 8.74385 9.97442 8.76728 9.88744 8.79176C9.71895 8.8389 9.55307 8.89254 9.38979 8.95192C9.30932 8.98056 9.22989 9.00791 9.14838 9.03994C8.95359 9.11884 8.76375 9.20739 8.57807 9.3027C8.53823 9.32301 8.49604 9.3402 8.45646 9.36155C8.23484 9.4816 8.01974 9.61363 7.81219 9.75712C7.75411 9.79723 7.70021 9.84202 7.6437 9.88369C7.49604 9.9902 7.35203 10.1045 7.21401 10.2233C7.14682 10.2813 7.08276 10.3418 7.01766 10.4019C6.89396 10.5173 6.77469 10.6365 6.66037 10.7605C6.60047 10.8248 6.54084 10.8884 6.4838 10.9545C6.36115 11.0975 6.24526 11.2462 6.13433 11.3988C6.10464 11.4399 6.06896 11.4772 6.03953 11.5194C5.92599 11.0662 5.86792 10.6011 5.86662 10.1342C5.87052 6.89567 8.495 4.27146 11.7333 4.26756ZM1.06663 17.6009C1.05569 15.1589 2.89085 13.1027 5.31844 12.8371C5.27573 12.9438 5.24266 13.0506 5.2049 13.1571C5.17183 13.2501 5.13433 13.3412 5.10568 13.436C5.06662 13.5621 5.03797 13.6915 5.00646 13.8196C4.98407 13.9108 4.95673 13.9993 4.93824 14.0915C4.90829 14.2394 4.88954 14.3907 4.86949 14.5417C4.85933 14.618 4.84318 14.6925 4.83537 14.7704C4.81219 15.0003 4.79995 15.2334 4.79995 15.4691C4.80048 16.0313 4.87027 16.5912 5.00803 17.1363C3.57235 17.3425 2.26507 18.0764 1.34189 19.1951C1.16038 18.6831 1.06715 18.1441 1.06663 17.6009ZM25.5999 27.7342H5.86662C4.1622 27.7329 2.58616 26.8284 1.72496 25.3576C0.863767 23.8868 0.84658 22.0698 1.67939 20.5829C1.69215 20.5683 1.70387 20.5529 1.71481 20.5368C2.32079 19.4852 3.30439 18.7035 4.46558 18.3503C4.50308 18.3391 4.54084 18.329 4.57912 18.3183C4.72157 18.2787 4.86662 18.2472 5.01402 18.2212C5.06193 18.2126 5.10933 18.2024 5.15803 18.1951C5.34501 18.1665 5.53355 18.1488 5.72261 18.1417C5.89318 18.1365 6.05099 18.0503 6.14709 17.9094C6.24318 17.7686 6.26636 17.5904 6.20907 17.4298C5.13433 14.3954 6.70776 11.0623 9.73353 9.96389C12.759 8.86546 16.1046 10.4126 17.2267 13.4298C17.2942 13.6313 17.4825 13.7678 17.695 13.7694C17.7822 13.7774 17.87 13.7634 17.9504 13.7285C18.5088 13.4686 19.1174 13.3342 19.7332 13.3342C21.7627 13.3376 23.5098 14.7673 23.9153 16.7555C23.9733 17.0443 24.2546 17.2313 24.5434 17.1732C25.1098 17.0566 25.6918 17.0363 26.265 17.1134C26.3296 17.1214 26.3931 17.1326 26.4569 17.1428C26.6192 17.1693 26.7791 17.2029 26.9371 17.2436C26.9973 17.2597 27.0593 17.273 27.1189 17.2904C27.3166 17.3488 27.5108 17.4186 27.7002 17.4995C27.76 17.5251 27.816 17.5561 27.8741 17.5834C28.008 17.6467 28.1408 17.7152 28.2671 17.7891C28.3387 17.8303 28.4095 17.873 28.4806 17.9178C28.6126 18.0029 28.7408 18.0949 28.8655 18.1912C28.9093 18.2253 28.9551 18.2563 28.9983 18.2915C29.1554 18.4232 29.3048 18.5636 29.4457 18.7123C29.4874 18.7561 29.5275 18.8014 29.5673 18.8467C29.6955 18.9886 29.8158 19.1376 29.9275 19.2925C29.9429 19.3133 29.9595 19.3337 29.9744 19.355C30.11 19.5503 30.233 19.7542 30.3418 19.9657C31.1957 21.618 31.1254 23.5964 30.1564 25.1839C29.1874 26.7717 27.46 27.7383 25.5999 27.7342Z" fill="black"/>
</g>
<defs>
<clipPath id="clip0">
<rect width="32" height="32" fill="white"/>
</clipPath>
</defs>
</svg>
